<mxfile host="app.diagrams.net" modified="2020-04-14T13:06:58.614Z" agent="5.0 (Windows NT 10.0; Win64; x64) AppleWebKit/537.36 (KHTML, like Gecko) Chrome/80.0.3987.163 Safari/537.36" etag="bRVzTcNIdOYDXrukbB-4" version="12.9.11" type="github">
  <diagram id="AoLe5V4ISyPj-6RMyFMR" name="Страница 1">
    <mxGraphModel dx="664" dy="754" grid="1" gridSize="10" guides="1" tooltips="1" connect="1" arrows="1" fold="1" page="1" pageScale="1" pageWidth="827" pageHeight="1169" math="0" shadow="0">
      <root>
        <mxCell id="0" />
        <mxCell id="1" parent="0" />
        <mxCell id="YUrXhNPh0uZ1h1seXc1K-8" style="edgeStyle=orthogonalEdgeStyle;rounded=0;orthogonalLoop=1;jettySize=auto;html=1;exitX=1;exitY=0.25;exitDx=0;exitDy=0;entryX=0.25;entryY=0;entryDx=0;entryDy=0;" parent="1" source="pFTF1I5AWca8MZ5ZyV97-1" target="pFTF1I5AWca8MZ5ZyV97-18" edge="1">
          <mxGeometry relative="1" as="geometry" />
        </mxCell>
        <mxCell id="YUrXhNPh0uZ1h1seXc1K-9" style="edgeStyle=orthogonalEdgeStyle;rounded=0;orthogonalLoop=1;jettySize=auto;html=1;exitX=1;exitY=0.25;exitDx=0;exitDy=0;entryX=0.25;entryY=0;entryDx=0;entryDy=0;" parent="1" source="pFTF1I5AWca8MZ5ZyV97-1" target="pFTF1I5AWca8MZ5ZyV97-11" edge="1">
          <mxGeometry relative="1" as="geometry" />
        </mxCell>
        <mxCell id="YUrXhNPh0uZ1h1seXc1K-12" style="edgeStyle=orthogonalEdgeStyle;rounded=0;orthogonalLoop=1;jettySize=auto;html=1;exitX=1;exitY=0.25;exitDx=0;exitDy=0;entryX=0;entryY=0.5;entryDx=0;entryDy=0;" parent="1" source="pFTF1I5AWca8MZ5ZyV97-1" target="pFTF1I5AWca8MZ5ZyV97-18" edge="1">
          <mxGeometry relative="1" as="geometry" />
        </mxCell>
        <mxCell id="YUrXhNPh0uZ1h1seXc1K-26" style="edgeStyle=orthogonalEdgeStyle;rounded=0;orthogonalLoop=1;jettySize=auto;html=1;exitX=1;exitY=0.25;exitDx=0;exitDy=0;entryX=0.25;entryY=0;entryDx=0;entryDy=0;" parent="1" source="pFTF1I5AWca8MZ5ZyV97-1" target="pFTF1I5AWca8MZ5ZyV97-17" edge="1">
          <mxGeometry relative="1" as="geometry" />
        </mxCell>
        <mxCell id="pFTF1I5AWca8MZ5ZyV97-1" value="Сервер отравляет запрос" style="rounded=0;whiteSpace=wrap;html=1;" parent="1" vertex="1">
          <mxGeometry x="160" y="190" width="100" height="70" as="geometry" />
        </mxCell>
        <mxCell id="pFTF1I5AWca8MZ5ZyV97-4" value="1" style="text;html=1;strokeColor=none;fillColor=none;align=center;verticalAlign=middle;whiteSpace=wrap;rounded=0;" parent="1" vertex="1">
          <mxGeometry x="240" y="240" width="20" height="20" as="geometry" />
        </mxCell>
        <mxCell id="YUrXhNPh0uZ1h1seXc1K-17" style="edgeStyle=orthogonalEdgeStyle;rounded=0;orthogonalLoop=1;jettySize=auto;html=1;exitX=1;exitY=0.5;exitDx=0;exitDy=0;entryX=0;entryY=0.5;entryDx=0;entryDy=0;" parent="1" source="pFTF1I5AWca8MZ5ZyV97-11" target="pFTF1I5AWca8MZ5ZyV97-17" edge="1">
          <mxGeometry relative="1" as="geometry" />
        </mxCell>
        <mxCell id="pFTF1I5AWca8MZ5ZyV97-11" value="Структурирование данных в XML сообщение" style="rounded=0;whiteSpace=wrap;html=1;" parent="1" vertex="1">
          <mxGeometry x="450" y="290" width="120" height="60" as="geometry" />
        </mxCell>
        <mxCell id="pFTF1I5AWca8MZ5ZyV97-16" value="3" style="text;html=1;strokeColor=none;fillColor=none;align=center;verticalAlign=middle;whiteSpace=wrap;rounded=0;" parent="1" vertex="1">
          <mxGeometry x="550" y="330" width="20" height="20" as="geometry" />
        </mxCell>
        <mxCell id="pFTF1I5AWca8MZ5ZyV97-34" style="edgeStyle=orthogonalEdgeStyle;rounded=0;orthogonalLoop=1;jettySize=auto;html=1;exitX=1;exitY=0.5;exitDx=0;exitDy=0;" parent="1" source="pFTF1I5AWca8MZ5ZyV97-17" edge="1">
          <mxGeometry relative="1" as="geometry">
            <mxPoint x="750" y="370" as="targetPoint" />
          </mxGeometry>
        </mxCell>
        <mxCell id="pFTF1I5AWca8MZ5ZyV97-17" value="Отправка данных" style="rounded=0;whiteSpace=wrap;html=1;" parent="1" vertex="1">
          <mxGeometry x="610" y="340" width="100" height="60" as="geometry" />
        </mxCell>
        <mxCell id="pFTF1I5AWca8MZ5ZyV97-29" style="edgeStyle=orthogonalEdgeStyle;rounded=0;orthogonalLoop=1;jettySize=auto;html=1;exitX=1;exitY=0.5;exitDx=0;exitDy=0;entryX=0;entryY=0.5;entryDx=0;entryDy=0;" parent="1" source="pFTF1I5AWca8MZ5ZyV97-18" target="pFTF1I5AWca8MZ5ZyV97-11" edge="1">
          <mxGeometry relative="1" as="geometry" />
        </mxCell>
        <mxCell id="pFTF1I5AWca8MZ5ZyV97-18" value="Клиент принял запрос и собирает данные" style="rounded=0;whiteSpace=wrap;html=1;" parent="1" vertex="1">
          <mxGeometry x="300" y="230" width="100" height="85" as="geometry" />
        </mxCell>
        <mxCell id="pFTF1I5AWca8MZ5ZyV97-23" value="4" style="text;html=1;strokeColor=none;fillColor=none;align=center;verticalAlign=middle;whiteSpace=wrap;rounded=0;" parent="1" vertex="1">
          <mxGeometry x="690" y="380" width="20" height="20" as="geometry" />
        </mxCell>
        <mxCell id="pFTF1I5AWca8MZ5ZyV97-35" value="Запрос" style="text;html=1;strokeColor=none;fillColor=none;align=center;verticalAlign=middle;whiteSpace=wrap;rounded=0;" parent="1" vertex="1">
          <mxGeometry x="270" y="180" width="55" height="20" as="geometry" />
        </mxCell>
        <mxCell id="pFTF1I5AWca8MZ5ZyV97-37" value="Собранные данные" style="text;html=1;strokeColor=none;fillColor=none;align=center;verticalAlign=middle;whiteSpace=wrap;rounded=0;" parent="1" vertex="1">
          <mxGeometry x="400" y="240" width="70" height="20" as="geometry" />
        </mxCell>
        <mxCell id="YUrXhNPh0uZ1h1seXc1K-20" style="edgeStyle=orthogonalEdgeStyle;rounded=0;orthogonalLoop=1;jettySize=auto;html=1;exitX=0.5;exitY=1;exitDx=0;exitDy=0;entryX=0.5;entryY=0;entryDx=0;entryDy=0;" parent="1" source="pFTF1I5AWca8MZ5ZyV97-40" target="pFTF1I5AWca8MZ5ZyV97-17" edge="1">
          <mxGeometry relative="1" as="geometry">
            <Array as="points">
              <mxPoint x="660" y="180" />
            </Array>
          </mxGeometry>
        </mxCell>
        <mxCell id="YUrXhNPh0uZ1h1seXc1K-22" style="edgeStyle=orthogonalEdgeStyle;rounded=0;orthogonalLoop=1;jettySize=auto;html=1;exitX=0.5;exitY=1;exitDx=0;exitDy=0;" parent="1" source="pFTF1I5AWca8MZ5ZyV97-40" target="pFTF1I5AWca8MZ5ZyV97-18" edge="1">
          <mxGeometry relative="1" as="geometry">
            <Array as="points">
              <mxPoint x="350" y="170" />
              <mxPoint x="350" y="170" />
            </Array>
          </mxGeometry>
        </mxCell>
        <mxCell id="YUrXhNPh0uZ1h1seXc1K-23" style="edgeStyle=orthogonalEdgeStyle;rounded=0;orthogonalLoop=1;jettySize=auto;html=1;exitX=0.5;exitY=1;exitDx=0;exitDy=0;entryX=0.5;entryY=0;entryDx=0;entryDy=0;" parent="1" source="pFTF1I5AWca8MZ5ZyV97-40" target="pFTF1I5AWca8MZ5ZyV97-11" edge="1">
          <mxGeometry relative="1" as="geometry">
            <Array as="points">
              <mxPoint x="350" y="180" />
              <mxPoint x="510" y="180" />
            </Array>
          </mxGeometry>
        </mxCell>
        <mxCell id="pFTF1I5AWca8MZ5ZyV97-40" value="Необходимая информация" style="text;html=1;strokeColor=none;fillColor=none;align=center;verticalAlign=middle;whiteSpace=wrap;rounded=0;" parent="1" vertex="1">
          <mxGeometry x="310" y="130" width="80" height="30" as="geometry" />
        </mxCell>
        <mxCell id="pFTF1I5AWca8MZ5ZyV97-42" value="Клиентские данные" style="text;html=1;strokeColor=none;fillColor=none;align=center;verticalAlign=middle;whiteSpace=wrap;rounded=0;" parent="1" vertex="1">
          <mxGeometry x="80" y="190" width="70" height="30" as="geometry" />
        </mxCell>
        <mxCell id="pFTF1I5AWca8MZ5ZyV97-43" value="" style="endArrow=classic;html=1;entryX=0;entryY=0.5;entryDx=0;entryDy=0;" parent="1" target="pFTF1I5AWca8MZ5ZyV97-1" edge="1">
          <mxGeometry width="50" height="50" relative="1" as="geometry">
            <mxPoint x="90" y="225" as="sourcePoint" />
            <mxPoint x="130" y="240" as="targetPoint" />
          </mxGeometry>
        </mxCell>
        <mxCell id="pFTF1I5AWca8MZ5ZyV97-49" value="Запрошенные данные" style="text;html=1;strokeColor=none;fillColor=none;align=center;verticalAlign=middle;whiteSpace=wrap;rounded=0;" parent="1" vertex="1">
          <mxGeometry x="730" y="340" width="40" height="20" as="geometry" />
        </mxCell>
        <mxCell id="X1KBWUIIKqeDnerTApMN-15" value="2" style="text;html=1;strokeColor=none;fillColor=none;align=center;verticalAlign=middle;whiteSpace=wrap;rounded=0;" parent="1" vertex="1">
          <mxGeometry x="380" y="295" width="20" height="20" as="geometry" />
        </mxCell>
        <mxCell id="X1KBWUIIKqeDnerTApMN-18" value="" style="rounded=0;whiteSpace=wrap;html=1;fillColor=none;" parent="1" vertex="1">
          <mxGeometry x="70" y="610" width="720" height="30" as="geometry" />
        </mxCell>
        <mxCell id="X1KBWUIIKqeDnerTApMN-19" value="" style="rounded=0;whiteSpace=wrap;html=1;fillColor=none;" parent="1" vertex="1">
          <mxGeometry x="620" y="610" width="170" height="30" as="geometry" />
        </mxCell>
        <mxCell id="X1KBWUIIKqeDnerTApMN-20" value="" style="rounded=0;whiteSpace=wrap;html=1;fillColor=none;" parent="1" vertex="1">
          <mxGeometry x="70" y="610" width="130" height="30" as="geometry" />
        </mxCell>
        <mxCell id="X1KBWUIIKqeDnerTApMN-21" value="NODE:" style="text;html=1;strokeColor=none;fillColor=none;align=center;verticalAlign=middle;whiteSpace=wrap;rounded=0;" parent="1" vertex="1">
          <mxGeometry x="75" y="615" width="40" height="20" as="geometry" />
        </mxCell>
        <mxCell id="X1KBWUIIKqeDnerTApMN-22" value="A1" style="text;html=1;strokeColor=none;fillColor=none;align=center;verticalAlign=middle;whiteSpace=wrap;rounded=0;" parent="1" vertex="1">
          <mxGeometry x="126" y="615" width="40" height="20" as="geometry" />
        </mxCell>
        <mxCell id="X1KBWUIIKqeDnerTApMN-23" value="TITLE:" style="text;html=1;strokeColor=none;fillColor=none;align=center;verticalAlign=middle;whiteSpace=wrap;rounded=0;" parent="1" vertex="1">
          <mxGeometry x="205" y="615" width="40" height="20" as="geometry" />
        </mxCell>
        <mxCell id="X1KBWUIIKqeDnerTApMN-24" value="Запрос" style="text;html=1;strokeColor=none;fillColor=none;align=center;verticalAlign=middle;whiteSpace=wrap;rounded=0;" parent="1" vertex="1">
          <mxGeometry x="255" y="615" width="240" height="20" as="geometry" />
        </mxCell>
        <mxCell id="X1KBWUIIKqeDnerTApMN-25" value="NUMBER:" style="text;html=1;strokeColor=none;fillColor=none;align=center;verticalAlign=middle;whiteSpace=wrap;rounded=0;" parent="1" vertex="1">
          <mxGeometry x="635" y="615" width="60" height="20" as="geometry" />
        </mxCell>
        <mxCell id="X1KBWUIIKqeDnerTApMN-26" value="" style="rounded=0;whiteSpace=wrap;html=1;fillColor=none;" parent="1" vertex="1">
          <mxGeometry x="740" y="630" width="50" height="10" as="geometry" />
        </mxCell>
        <mxCell id="vNaigPXNE_TYeV-T1_Ya-8" value="" style="rounded=0;whiteSpace=wrap;html=1;fillColor=none;" parent="1" vertex="1">
          <mxGeometry x="70" y="640" width="720" height="410" as="geometry" />
        </mxCell>
        <mxCell id="YUrXhNPh0uZ1h1seXc1K-19" value="XML сообщение" style="text;html=1;strokeColor=none;fillColor=none;align=center;verticalAlign=middle;whiteSpace=wrap;rounded=0;" parent="1" vertex="1">
          <mxGeometry x="583" y="290" width="40" height="20" as="geometry" />
        </mxCell>
        <mxCell id="YUrXhNPh0uZ1h1seXc1K-27" value="" style="endArrow=classic;html=1;entryX=0.5;entryY=1;entryDx=0;entryDy=0;exitX=0;exitY=0.25;exitDx=0;exitDy=0;" parent="1" source="YUrXhNPh0uZ1h1seXc1K-28" target="pFTF1I5AWca8MZ5ZyV97-1" edge="1">
          <mxGeometry width="50" height="50" relative="1" as="geometry">
            <mxPoint x="210" y="440" as="sourcePoint" />
            <mxPoint x="380" y="320" as="targetPoint" />
          </mxGeometry>
        </mxCell>
        <mxCell id="YUrXhNPh0uZ1h1seXc1K-28" value="Сервер" style="text;html=1;strokeColor=none;fillColor=none;align=center;verticalAlign=middle;whiteSpace=wrap;rounded=0;" parent="1" vertex="1">
          <mxGeometry x="210" y="460" width="50" height="20" as="geometry" />
        </mxCell>
        <mxCell id="YUrXhNPh0uZ1h1seXc1K-37" style="edgeStyle=orthogonalEdgeStyle;rounded=0;orthogonalLoop=1;jettySize=auto;html=1;exitX=0.5;exitY=0;exitDx=0;exitDy=0;entryX=0.5;entryY=1;entryDx=0;entryDy=0;" parent="1" source="YUrXhNPh0uZ1h1seXc1K-36" target="pFTF1I5AWca8MZ5ZyV97-18" edge="1">
          <mxGeometry relative="1" as="geometry" />
        </mxCell>
        <mxCell id="YUrXhNPh0uZ1h1seXc1K-38" style="edgeStyle=orthogonalEdgeStyle;rounded=0;orthogonalLoop=1;jettySize=auto;html=1;exitX=0.5;exitY=0;exitDx=0;exitDy=0;entryX=0.5;entryY=1;entryDx=0;entryDy=0;" parent="1" source="YUrXhNPh0uZ1h1seXc1K-36" target="pFTF1I5AWca8MZ5ZyV97-11" edge="1">
          <mxGeometry relative="1" as="geometry">
            <Array as="points">
              <mxPoint x="350" y="410" />
              <mxPoint x="510" y="410" />
            </Array>
          </mxGeometry>
        </mxCell>
        <mxCell id="YUrXhNPh0uZ1h1seXc1K-39" style="edgeStyle=orthogonalEdgeStyle;rounded=0;orthogonalLoop=1;jettySize=auto;html=1;exitX=0.5;exitY=0;exitDx=0;exitDy=0;entryX=0.5;entryY=1;entryDx=0;entryDy=0;" parent="1" source="ZrXf7C4sKSxWWlTkPWR3-3" target="pFTF1I5AWca8MZ5ZyV97-17" edge="1">
          <mxGeometry relative="1" as="geometry">
            <Array as="points">
              <mxPoint x="350" y="430" />
              <mxPoint x="660" y="430" />
            </Array>
          </mxGeometry>
        </mxCell>
        <mxCell id="YUrXhNPh0uZ1h1seXc1K-36" value="Клиент" style="text;html=1;strokeColor=none;fillColor=none;align=center;verticalAlign=middle;whiteSpace=wrap;rounded=0;" parent="1" vertex="1">
          <mxGeometry x="330" y="460" width="40" height="20" as="geometry" />
        </mxCell>
        <mxCell id="YUrXhNPh0uZ1h1seXc1K-41" value="Системный администратор" style="text;html=1;strokeColor=none;fillColor=none;align=center;verticalAlign=middle;whiteSpace=wrap;rounded=0;" parent="1" vertex="1">
          <mxGeometry x="100" y="450" width="90" height="30" as="geometry" />
        </mxCell>
        <mxCell id="YUrXhNPh0uZ1h1seXc1K-42" value="" style="endArrow=classic;html=1;entryX=0.25;entryY=1;entryDx=0;entryDy=0;" parent="1" target="pFTF1I5AWca8MZ5ZyV97-1" edge="1">
          <mxGeometry width="50" height="50" relative="1" as="geometry">
            <mxPoint x="185" y="465" as="sourcePoint" />
            <mxPoint x="320" y="320" as="targetPoint" />
          </mxGeometry>
        </mxCell>
        <mxCell id="ZrXf7C4sKSxWWlTkPWR3-5" value="XML" style="text;html=1;strokeColor=none;fillColor=none;align=center;verticalAlign=middle;whiteSpace=wrap;rounded=0;" vertex="1" parent="1">
          <mxGeometry x="415" y="390" width="30" height="20" as="geometry" />
        </mxCell>
        <mxCell id="ZrXf7C4sKSxWWlTkPWR3-3" value="TClientSocket" style="text;html=1;strokeColor=none;fillColor=none;align=center;verticalAlign=middle;whiteSpace=wrap;rounded=0;" vertex="1" parent="1">
          <mxGeometry x="390" y="430" width="80" height="20" as="geometry" />
        </mxCell>
      </root>
    </mxGraphModel>
  </diagram>
</mxfile>
